<svg xmlns="http://www.w3.org/2000/svg" viewBox="0 0 32 32" fill="#b0795a">
  <path d="M16 4.5 C13 8 11.8 11.2 11.8 13.8 C11.8 17.3 13.6 19.5 16 20.5 C18.4 19.5 20.2 17.3 20.2 13.8 C20.2 11.2 19 8 16 4.5 Z"/>
  <path d="M6.2 10.2 C9.8 10.6 12.5 12.3 14 14.6 C15.2 16.6 15.5 18.9 14.8 20.8 C12.6 20.9 10.2 19.9 8.7 17.9 C7.1 15.8 6.3 13.2 6.2 10.2 Z"/>
  <path d="M25.8 10.2 C22.2 10.6 19.5 12.3 18 14.6 C16.8 16.6 16.5 18.9 17.2 20.8 C19.4 20.9 21.8 19.9 23.3 17.9 C24.9 15.8 25.7 13.2 25.8 10.2 Z"/>
  <path d="M4.8 20.6 C7.7 23.5 11.6 25.1 16 25.1 C20.4 25.1 24.3 23.5 27.2 20.6 C26.3 25 21.7 27.9 16 27.9 C10.3 27.9 5.7 25 4.8 20.6 Z"/>
</svg>
